<svg width="20" height="20" viewBox="0 0 20 20" fill="none" xmlns="http://www.w3.org/2000/svg">
<path d="M0.90625 2.75C0.015625 3.21875 0 3.32812 0 10C0 16.7031 0.015625 16.7812 0.9375 17.2656C1.625 17.625 18.375 17.625 19.0625 17.2656C19.9844 16.7812 20 16.7031 20 10C20 3.29688 19.9844 3.21875 19.0625 2.73438C18.3906 2.39062 1.54688 2.39062 0.90625 2.75ZM17.8906 3.89062C17.5469 4.23438 15.7188 5.92188 13.8281 7.64062C11.2812 9.96875 10.2969 10.7812 10 10.7812C9.70312 10.7812 8.71875 9.96875 6.17188 7.64062C4.28125 5.92188 2.45312 4.23438 2.10938 3.89062L1.48438 3.28125H10H18.5156L17.8906 3.89062ZM4.25 7.01562L7.46875 9.96875L4.21875 12.9531C2.42188 14.5938 0.921875 15.9375 0.859375 15.9375C0.8125 15.9375 0.78125 13.2656 0.78125 10C0.78125 6.73438 0.828125 4.0625 0.90625 4.0625C0.96875 4.0625 2.46875 5.39062 4.25 7.01562ZM19.2188 10C19.2188 13.2656 19.1875 15.9375 19.1406 15.9375C19.0781 15.9375 17.5781 14.5938 15.7812 12.9531L12.5312 9.96875L15.75 7.01562C17.5312 5.39062 19.0312 4.0625 19.0938 4.0625C19.1719 4.0625 19.2188 6.73438 19.2188 10ZM8.75 11.1094C9.59375 11.7969 10.4062 11.7969 11.2656 11.1094C11.7969 10.6719 11.9219 10.625 12.1562 10.8125C13.0938 11.5312 18.4375 16.5156 18.4375 16.6562C18.4375 16.6875 14.6406 16.7188 10 16.7188C5.35938 16.7188 1.5625 16.6875 1.5625 16.6562C1.5625 16.4844 7.89062 10.625 8.0625 10.625C8.10938 10.625 8.42188 10.8438 8.75 11.1094Z" fill="#202020"/>
</svg>
