<svg width="20" height="20" viewBox="0 0 20 20" fill="none" xmlns="http://www.w3.org/2000/svg">
<path d="M5.04689 0.3125C4.00001 0.9375 4.04689 0.46875 4.04689 10C4.04689 19.5312 4.00001 19.0625 5.04689 19.6875C5.51564 19.9844 5.85939 20 10 20C14.1406 20 14.4844 19.9844 14.9531 19.6875C16 19.0625 15.9531 19.5312 15.9531 10C15.9531 0.46875 16 0.9375 14.9531 0.3125C14.4844 0.015625 14.1406 0 10 0C5.85939 0 5.51564 0.015625 5.04689 0.3125ZM14.8594 1.23438C15.0625 1.48438 15.1563 1.84375 15.1563 2.35938V3.125H10H4.84376V2.40625C4.84376 1.57812 5.04689 1.125 5.51564 0.9375C5.70314 0.859375 7.81251 0.8125 10.2031 0.828125L14.5625 0.859375L14.8594 1.23438ZM15.1563 10V15.9375H10H4.84376V10V4.0625H10H15.1563V10ZM15.1563 17.6406C15.1563 18.1562 15.0625 18.5156 14.8594 18.7656L14.5625 19.1406H10H5.43751L5.14064 18.7656C4.93751 18.5156 4.84376 18.1562 4.84376 17.6406V16.875H10H15.1563V17.6406Z" fill="#202020"/>
<path d="M8.95313 1.73438C8.56251 2.125 8.92188 2.34375 10 2.34375C10.75 2.34375 11.0781 2.28125 11.1406 2.125C11.2813 1.75 10.9063 1.5625 10 1.5625C9.51563 1.5625 9.04688 1.64062 8.95313 1.73438Z" fill="#202020"/>
<path d="M9.71876 18C9.75001 18.2031 9.87501 18.3594 10 18.3594C10.125 18.3594 10.25 18.2031 10.2813 18C10.3281 17.7344 10.25 17.6562 10 17.6562C9.75001 17.6562 9.67189 17.7344 9.71876 18Z" fill="#202020"/>
</svg>
