<svg width="20" height="20" viewBox="0 0 20 20" fill="none" xmlns="http://www.w3.org/2000/svg">
<path d="M8.67187 0.156248C6.95312 0.515623 5.40625 1.42187 4.40625 2.625C2.39062 5.04687 2.10937 8.21875 3.65625 11.0156C4.75 13 9.35937 19.8125 9.67187 19.9219C9.85937 19.9688 10.1406 19.9688 10.3281 19.9219C10.6406 19.8125 15.25 13 16.3437 11.0156C19.0312 6.15625 15.9062 0.406248 10.3906 0.0781231C9.79687 0.0468731 9.01562 0.0781231 8.67187 0.156248ZM12.8437 1.60937C16.2656 3.29687 17.4687 7.28125 15.5781 10.625C14.9687 11.6875 10.1094 19.0625 10 19.0625C9.89062 19.0625 5.03125 11.6875 4.42187 10.625C3.01562 8.125 3.29687 5.1875 5.15625 3.07812C5.875 2.26562 6.51562 1.82812 7.79687 1.29687C8.54687 0.984373 8.89062 0.937498 10.1719 0.968748C11.5312 1.01562 11.7656 1.0625 12.8437 1.60937Z" fill="#202020"/>
<path d="M8.78123 3.71875C7.57811 4.15625 7.07811 4.625 6.45311 5.92187C5.28123 8.35937 7.20311 11.25 9.99998 11.25C12.0781 11.25 13.6719 9.76562 13.8594 7.64062C14 6.125 13.0469 4.53125 11.6094 3.875C10.625 3.4375 9.73436 3.39062 8.78123 3.71875ZM11.6875 4.875C13.0469 5.78125 13.4062 7.9375 12.3906 9.17187C11.7031 10.0469 11.0156 10.3906 9.99998 10.3906C8.98436 10.3906 8.29686 10.0469 7.59373 9.17187C7.15623 8.625 7.10936 8.46875 7.10936 7.4375C7.10936 6.46875 7.17186 6.21875 7.53123 5.67187C8.40623 4.35937 10.3281 3.98437 11.6875 4.875Z" fill="#202020"/>
</svg>
